# xmcd
#
# Track frame offsets:
#	150
#	16618
#	35629
#	53014
#	65629
#	79528
#	95539
#	113000
#	130201
#	146722
#
# Disc length: 2211 seconds
#
# Revision: 0
# Processed by: cddbd v1.5.2PL0 Copyright (c) Steve Scherf et al.
# Submitted via: EasyCDDAExtractor 15.3.0.1
#
DISCID=7e08a10a
DTITLE=Samae Koskinen - Henkilökohtainen ennätys
DYEAR=2015
DGENRE=Blues
TTITLE0=Sinä
TTITLE1=Äänekäs
TTITLE2=Keltaista
TTITLE3=Sä oot kotonas ja pelkäät
TTITLE4=Laivaan
TTITLE5=Holtiton
TTITLE6=Mä etsin jotain mitä ei ole olemassakaan
TTITLE7=Kuusamon aurinko
TTITLE8=Myrsky
TTITLE9=Juhlat
EXTD=
EXTT0=
EXTT1=
EXTT2=
EXTT3=
EXTT4=
EXTT5=
EXTT6=
EXTT7=
EXTT8=
EXTT9=
PLAYORDER=
